<?xml version="1.0" standalone="yes"?>

<svg version="1.1" viewBox="0.0 0.0 960.0 720.0" fill="none" stroke="none" stroke-linecap="square" stroke-miterlimit="10" xmlns="http://www.w3.org/2000/svg" xmlns:xlink="http://www.w3.org/1999/xlink"><clipPath id="p.0"><path d="m0 0l960.0 0l0 720.0l-960.0 0l0 -720.0z" clip-rule="nonzero"></path></clipPath><g clip-path="url(#p.0)"><path fill="#000000" fill-opacity="0.0" d="m0 0l960.0 0l0 720.0l-960.0 0z" fill-rule="evenodd"></path><path fill="#000000" fill-opacity="0.0" d="m649.2743 524.2152l321.4173 0l0 185.35437l-321.4173 0z" fill-rule="evenodd"></path><path fill="#cfe2f3" d="m357.87402 402.85565l0 0c0 -10.257141 8.315033 -18.572174 18.572174 -18.572174l195.35959 0c4.925659 0 9.649536 1.9566956 13.132507 5.4396667c3.4829712 3.4829407 5.439636 8.206848 5.439636 13.132507l0 74.2887c0 10.257141 -8.315002 18.572174 -18.572144 18.572174l-195.35959 0l0 0c-10.257141 0 -18.572174 -8.315033 -18.572174 -18.572174z" fill-rule="evenodd"></path><path stroke="#000000" stroke-width="1.0" stroke-linejoin="round" stroke-linecap="butt" d="m357.87402 402.85565l0 0c0 -10.257141 8.315033 -18.572174 18.572174 -18.572174l195.35959 0c4.925659 0 9.649536 1.9566956 13.132507 5.4396667c3.4829712 3.4829407 5.439636 8.206848 5.439636 13.132507l0 74.2887c0 10.257141 -8.315002 18.572174 -18.572144 18.572174l-195.35959 0l0 0c-10.257141 0 -18.572174 -8.315033 -18.572174 -18.572174z" fill-rule="evenodd"></path><path fill="#000000" d="m409.11035 451.72l0 -22.90625l3.03125 0l0 9.40625l11.90625 0l0 -9.40625l3.03125 0l0 22.90625l-3.03125 0l0 -10.796875l-11.90625 0l0 10.796875l-3.03125 0zm21.609375 -8.296875q0 -4.609375 2.5625 -6.828125q2.140625 -1.84375 5.21875 -1.84375q3.421875 0 5.59375 2.25q2.171875 2.234375 2.171875 6.1875q0 3.203125 -0.96875 5.046875q-0.953125 1.828125 -2.796875 2.84375q-1.828125 1.015625 -4.0 1.015625q-3.484375 0 -5.640625 -2.234375q-2.140625 -2.234375 -2.140625 -6.4375zm2.890625 0q0 3.1875 1.390625 4.78125q1.390625 1.578125 3.5 1.578125q2.09375 0 3.484375 -1.59375q1.390625 -1.59375 1.390625 -4.859375q0 -3.078125 -1.40625 -4.65625q-1.390625 -1.59375 -3.46875 -1.59375q-2.109375 0 -3.5 1.578125q-1.390625 1.578125 -1.390625 4.765625zm15.4375 9.671875l2.734375 0.40625q0.171875 1.265625 0.953125 1.84375q1.046875 0.78125 2.859375 0.78125q1.953125 0 3.015625 -0.78125q1.0625 -0.78125 1.4375 -2.1875q0.21875 -0.859375 0.203125 -3.609375q-1.84375 2.171875 -4.59375 2.171875q-3.421875 0 -5.296875 -2.46875q-1.875 -2.46875 -1.875 -5.921875q0 -2.375 0.859375 -4.375q0.859375 -2.015625 2.484375 -3.109375q1.640625 -1.09375 3.84375 -1.09375q2.9375 0 4.84375 2.375l0 -2.0l2.59375 0l0 14.34375q0 3.875 -0.796875 5.484375q-0.78125 1.625 -2.5 2.5625q-1.703125 0.9375 -4.203125 0.9375q-2.96875 0 -4.796875 -1.34375q-1.828125 -1.328125 -1.765625 -4.015625zm2.328125 -9.96875q0 3.265625 1.296875 4.765625q1.296875 1.5 3.25 1.5q1.9375 0 3.25 -1.484375q1.3125 -1.5 1.3125 -4.6875q0 -3.046875 -1.359375 -4.59375q-1.34375 -1.546875 -3.25 -1.546875q-1.875 0 -3.1875 1.53125q-1.3125 1.515625 -1.3125 4.515625zm19.046875 8.59375l-5.078125 -16.59375l2.90625 0l2.640625 9.578125l0.984375 3.5625q0.0625 -0.265625 0.859375 -3.421875l2.640625 -9.71875l2.890625 0l2.484375 9.625l0.828125 3.171875l0.953125 -3.203125l2.84375 -9.59375l2.734375 0l-5.1875 16.59375l-2.921875 0l-2.640625 -9.9375l-0.640625 -2.828125l-3.359375 12.765625l-2.9375 0zm30.875 -2.046875q-1.5625 1.328125 -3.015625 1.875q-1.4375 0.546875 -3.09375 0.546875q-2.734375 0 -4.203125 -1.328125q-1.46875 -1.34375 -1.46875 -3.421875q0 -1.21875 0.546875 -2.21875q0.5625 -1.015625 1.453125 -1.625q0.90625 -0.609375 2.03125 -0.921875q0.828125 -0.21875 2.5 -0.421875q3.40625 -0.40625 5.015625 -0.96875q0.015625 -0.578125 0.015625 -0.734375q0 -1.71875 -0.796875 -2.421875q-1.078125 -0.953125 -3.203125 -0.953125q-1.984375 0 -2.9375 0.703125q-0.9375 0.6875 -1.390625 2.453125l-2.75 -0.375q0.375 -1.765625 1.234375 -2.84375q0.859375 -1.09375 2.484375 -1.671875q1.625 -0.59375 3.765625 -0.59375q2.125 0 3.453125 0.5q1.328125 0.5 1.953125 1.265625q0.625 0.75 0.875 1.90625q0.140625 0.71875 0.140625 2.59375l0 3.75q0 3.921875 0.171875 4.96875q0.1875 1.03125 0.71875 1.984375l-2.9375 0q-0.4375 -0.875 -0.5625 -2.046875zm-0.234375 -6.28125q-1.53125 0.625 -4.59375 1.0625q-1.734375 0.25 -2.453125 0.5625q-0.71875 0.3125 -1.109375 0.921875q-0.390625 0.59375 -0.390625 1.328125q0 1.125 0.84375 1.875q0.859375 0.75 2.5 0.75q1.625 0 2.890625 -0.703125q1.265625 -0.71875 1.859375 -1.953125q0.453125 -0.953125 0.453125 -2.8125l0 -1.03125zm7.171875 8.328125l0 -16.59375l2.53125 0l0 2.515625q0.96875 -1.765625 1.78125 -2.328125q0.828125 -0.5625 1.8125 -0.5625q1.421875 0 2.890625 0.90625l-0.96875 2.609375q-1.03125 -0.609375 -2.0625 -0.609375q-0.921875 0 -1.65625 0.5625q-0.734375 0.546875 -1.046875 1.53125q-0.46875 1.5 -0.46875 3.28125l0 8.6875l-2.8125 0zm16.828125 -2.515625l0.40625 2.484375q-1.1875 0.25 -2.125 0.25q-1.53125 0 -2.375 -0.484375q-0.84375 -0.484375 -1.1875 -1.265625q-0.34375 -0.796875 -0.34375 -3.328125l0 -9.546875l-2.0625 0l0 -2.1875l2.0625 0l0 -4.109375l2.796875 -1.6875l0 5.796875l2.828125 0l0 2.1875l-2.828125 0l0 9.703125q0 1.203125 0.140625 1.546875q0.15625 0.34375 0.484375 0.546875q0.34375 0.203125 0.96875 0.203125q0.46875 0 1.234375 -0.109375zm1.625 -2.4375l2.78125 -0.4375q0.234375 1.671875 1.296875 2.5625q1.078125 0.890625 3.0 0.890625q1.9375 0 2.875 -0.78125q0.9375 -0.796875 0.9375 -1.859375q0 -0.953125 -0.828125 -1.5q-0.578125 -0.375 -2.875 -0.953125q-3.09375 -0.78125 -4.296875 -1.34375q-1.1875 -0.578125 -1.8125 -1.578125q-0.609375 -1.015625 -0.609375 -2.234375q0 -1.109375 0.5 -2.046875q0.515625 -0.953125 1.390625 -1.578125q0.65625 -0.484375 1.78125 -0.8125q1.140625 -0.34375 2.4375 -0.34375q1.953125 0 3.421875 0.5625q1.484375 0.5625 2.1875 1.53125q0.703125 0.953125 0.96875 2.5625l-2.75 0.375q-0.1875 -1.28125 -1.09375 -2.0q-0.890625 -0.71875 -2.53125 -0.71875q-1.9375 0 -2.765625 0.640625q-0.828125 0.640625 -0.828125 1.5q0 0.546875 0.34375 0.984375q0.34375 0.453125 1.078125 0.75q0.421875 0.15625 2.484375 0.71875q2.984375 0.796875 4.15625 1.3125q1.1875 0.5 1.859375 1.46875q0.671875 0.96875 0.671875 2.40625q0 1.40625 -0.828125 2.65625q-0.8125 1.234375 -2.359375 1.921875q-1.546875 0.671875 -3.5 0.671875q-3.234375 0 -4.9375 -1.34375q-1.6875 -1.34375 -2.15625 -3.984375z" fill-rule="nonzero"></path><path fill="#cfe2f3" d="m357.87402 218.85564l0 0c0 -10.257126 8.315033 -18.572174 18.572174 -18.572174l195.35959 0c4.925659 0 9.649536 1.9567108 13.132507 5.4396667c3.4829712 3.482956 5.439636 8.206863 5.439636 13.132507l0 74.28871c0 10.257141 -8.315002 18.572174 -18.572144 18.572174l-195.35959 0l0 0c-10.257141 0 -18.572174 -8.315033 -18.572174 -18.572174z" fill-rule="evenodd"></path><path stroke="#000000" stroke-width="1.0" stroke-linejoin="round" stroke-linecap="butt" d="m357.87402 218.85564l0 0c0 -10.257126 8.315033 -18.572174 18.572174 -18.572174l195.35959 0c4.925659 0 9.649536 1.9567108 13.132507 5.4396667c3.4829712 3.482956 5.439636 8.206863 5.439636 13.132507l0 74.28871c0 10.257141 -8.315002 18.572174 -18.572144 18.572174l-195.35959 0l0 0c-10.257141 0 -18.572174 -8.315033 -18.572174 -18.572174z" fill-rule="evenodd"></path><path fill="#000000" d="m407.3291 267.72l0 -22.90625l3.03125 0l0 9.40625l11.90625 0l0 -9.40625l3.03125 0l0 22.90625l-3.03125 0l0 -10.796875l-11.90625 0l0 10.796875l-3.03125 0zm34.015625 -5.34375l2.90625 0.359375q-0.6875 2.546875 -2.546875 3.953125q-1.859375 1.40625 -4.75 1.40625q-3.640625 0 -5.78125 -2.234375q-2.125 -2.25 -2.125 -6.296875q0 -4.1875 2.15625 -6.5q2.15625 -2.3125 5.59375 -2.3125q3.328125 0 5.4375 2.265625q2.109375 2.265625 2.109375 6.375q0 0.25 -0.015625 0.75l-12.375 0q0.15625 2.734375 1.546875 4.1875q1.390625 1.453125 3.46875 1.453125q1.546875 0 2.640625 -0.8125q1.09375 -0.8125 1.734375 -2.59375zm-9.234375 -4.546875l9.265625 0q-0.1875 -2.09375 -1.0625 -3.140625q-1.34375 -1.625 -3.484375 -1.625q-1.9375 0 -3.265625 1.296875q-1.3125 1.296875 -1.453125 3.46875zm15.640625 9.890625l0 -16.59375l2.53125 0l0 2.515625q0.96875 -1.765625 1.78125 -2.328125q0.828125 -0.5625 1.8125 -0.5625q1.421875 0 2.890625 0.90625l-0.96875 2.609375q-1.03125 -0.609375 -2.0625 -0.609375q-0.921875 0 -1.65625 0.5625q-0.734375 0.546875 -1.046875 1.53125q-0.46875 1.5 -0.46875 3.28125l0 8.6875l-2.8125 0zm10.6875 0l0 -16.59375l2.515625 0l0 2.328125q0.78125 -1.21875 2.078125 -1.953125q1.296875 -0.75 2.953125 -0.75q1.84375 0 3.015625 0.765625q1.1875 0.765625 1.671875 2.140625q1.96875 -2.90625 5.125 -2.90625q2.46875 0 3.796875 1.375q1.328125 1.359375 1.328125 4.203125l0 11.390625l-2.796875 0l0 -10.453125q0 -1.6875 -0.28125 -2.421875q-0.265625 -0.75 -0.984375 -1.203125q-0.71875 -0.453125 -1.6875 -0.453125q-1.75 0 -2.90625 1.171875q-1.15625 1.15625 -1.15625 3.71875l0 9.640625l-2.8125 0l0 -10.78125q0 -1.875 -0.6875 -2.8125q-0.6875 -0.9375 -2.25 -0.9375q-1.1875 0 -2.203125 0.625q-1.0 0.625 -1.453125 1.828125q-0.453125 1.203125 -0.453125 3.46875l0 8.609375l-2.8125 0zm26.671875 -19.671875l0 -3.234375l2.8125 0l0 3.234375l-2.8125 0zm0 19.671875l0 -16.59375l2.8125 0l0 16.59375l-2.8125 0zm6.046875 -8.296875q0 -4.609375 2.5625 -6.828125q2.140625 -1.84375 5.21875 -1.84375q3.421875 0 5.59375 2.25q2.171875 2.234375 2.171875 6.1875q0 3.203125 -0.96875 5.046875q-0.953125 1.828125 -2.796875 2.84375q-1.828125 1.015625 -4.0 1.015625q-3.484375 0 -5.640625 -2.234375q-2.140625 -2.234375 -2.140625 -6.4375zm2.890625 0q0 3.1875 1.390625 4.78125q1.390625 1.578125 3.5 1.578125q2.09375 0 3.484375 -1.59375q1.390625 -1.59375 1.390625 -4.859375q0 -3.078125 -1.40625 -4.65625q-1.390625 -1.59375 -3.46875 -1.59375q-2.109375 0 -3.5 1.578125q-1.390625 1.578125 -1.390625 4.765625zm15.953125 8.296875l0 -16.59375l2.53125 0l0 2.359375q1.828125 -2.734375 5.28125 -2.734375q1.5 0 2.75 0.546875q1.265625 0.53125 1.890625 1.40625q0.625 0.875 0.875 2.078125q0.15625 0.78125 0.15625 2.734375l0 10.203125l-2.8125 0l0 -10.09375q0 -1.71875 -0.328125 -2.5625q-0.328125 -0.859375 -1.171875 -1.359375q-0.828125 -0.515625 -1.953125 -0.515625q-1.796875 0 -3.109375 1.140625q-1.296875 1.140625 -1.296875 4.328125l0 9.0625l-2.8125 0zm29.15625 -5.34375l2.90625 0.359375q-0.6875 2.546875 -2.546875 3.953125q-1.859375 1.40625 -4.75 1.40625q-3.640625 0 -5.78125 -2.234375q-2.125 -2.25 -2.125 -6.296875q0 -4.1875 2.15625 -6.5q2.15625 -2.3125 5.59375 -2.3125q3.328125 0 5.4375 2.265625q2.109375 2.265625 2.109375 6.375q0 0.25 -0.015625 0.75l-12.375 0q0.15625 2.734375 1.546875 4.1875q1.390625 1.453125 3.46875 1.453125q1.546875 0 2.640625 -0.8125q1.09375 -0.8125 1.734375 -2.59375zm-9.234375 -4.546875l9.265625 0q-0.1875 -2.09375 -1.0625 -3.140625q-1.34375 -1.625 -3.484375 -1.625q-1.9375 0 -3.265625 1.296875q-1.3125 1.296875 -1.453125 3.46875z" fill-rule="nonzero"></path><path fill="#cfe2f3" d="m59.74803 42.855644l0 0c0 -10.2571335 8.315048 -18.57218 18.572182 -18.57218l195.35956 0c4.925659 0 9.649567 1.956707 13.132538 5.439665c3.4829407 3.4829597 5.4396667 8.206867 5.4396667 13.132515l0 74.28871c0 10.2571335 -8.315063 18.572182 -18.572205 18.572182l-195.35956 0l0 0c-10.2571335 0 -18.572182 -8.315048 -18.572182 -18.572182z" fill-rule="evenodd"></path><path stroke="#000000" stroke-width="1.0" stroke-linejoin="round" stroke-linecap="butt" d="m59.74803 42.855644l0 0c0 -10.2571335 8.315048 -18.57218 18.572182 -18.57218l195.35956 0c4.925659 0 9.649567 1.956707 13.132538 5.439665c3.4829407 3.4829597 5.4396667 8.206867 5.4396667 13.132515l0 74.28871c0 10.2571335 -8.315063 18.572182 -18.572205 18.572182l-195.35956 0l0 0c-10.2571335 0 -18.572182 -8.315048 -18.572182 -18.572182z" fill-rule="evenodd"></path><path fill="#000000" d="m109.13281 82.73563l0 -2.6875l9.703125 -0.015625l0 8.5q-2.234375 1.78125 -4.609375 2.6875q-2.375 0.890625 -4.875 0.890625q-3.375 0 -6.140625 -1.4375q-2.75 -1.453125 -4.15625 -4.1875q-1.40625 -2.734375 -1.40625 -6.109375q0 -3.34375 1.390625 -6.234375q1.40625 -2.90625 4.03125 -4.3125q2.625 -1.40625 6.046875 -1.40625q2.484375 0 4.484375 0.8125q2.015625 0.796875 3.15625 2.234375q1.140625 1.4375 1.734375 3.75l-2.734375 0.75q-0.515625 -1.75 -1.28125 -2.75q-0.765625 -1.0 -2.1875 -1.59375q-1.421875 -0.609375 -3.15625 -0.609375q-2.078125 0 -3.59375 0.640625q-1.515625 0.625 -2.453125 1.65625q-0.921875 1.03125 -1.4375 2.265625q-0.875 2.125 -0.875 4.609375q0 3.0625 1.046875 5.125q1.0625 2.0625 3.078125 3.0625q2.015625 1.0 4.28125 1.0q1.96875 0 3.84375 -0.75q1.875 -0.765625 2.84375 -1.625l0 -4.265625l-6.734375 0zm13.828125 -10.6875l0 -3.234375l2.8125 0l0 3.234375l-2.8125 0zm0 19.671875l0 -16.59375l2.8125 0l0 16.59375l-2.8125 0zm13.234375 -2.515625l0.40625 2.484375q-1.1875 0.25 -2.125 0.25q-1.53125 0 -2.375 -0.484375q-0.84375 -0.484375 -1.1875 -1.265625q-0.34375 -0.796875 -0.34375 -3.328125l0 -9.546875l-2.0625 0l0 -2.1875l2.0625 0l0 -4.109375l2.796875 -1.6875l0 5.796875l2.828125 0l0 2.1875l-2.828125 0l0 9.703125q0 1.203125 0.140625 1.546875q0.15625 0.34375 0.484375 0.546875q0.34375 0.203125 0.96875 0.203125q0.46875 0 1.234375 -0.109375zm2.75 2.515625l0 -22.90625l2.8125 0l0 8.21875q1.96875 -2.28125 4.96875 -2.28125q1.84375 0 3.203125 0.734375q1.359375 0.71875 1.9375 2.0q0.59375 1.28125 0.59375 3.71875l0 10.515625l-2.8125 0l0 -10.515625q0 -2.109375 -0.921875 -3.0625q-0.90625 -0.96875 -2.578125 -0.96875q-1.25 0 -2.359375 0.65625q-1.09375 0.640625 -1.5625 1.75q-0.46875 1.109375 -0.46875 3.0625l0 9.078125l-2.8125 0zm28.671875 0l0 -2.4375q-1.9375 2.8125 -5.265625 2.8125q-1.46875 0 -2.75 -0.5625q-1.265625 -0.5625 -1.890625 -1.40625q-0.609375 -0.859375 -0.859375 -2.09375q-0.171875 -0.828125 -0.171875 -2.625l0 -10.28125l2.8125 0l0 9.203125q0 2.203125 0.171875 2.96875q0.265625 1.109375 1.125 1.75q0.859375 0.625 2.125 0.625q1.265625 0 2.375 -0.640625q1.109375 -0.65625 1.5625 -1.765625q0.46875 -1.125 0.46875 -3.25l0 -8.890625l2.8125 0l0 16.59375l-2.515625 0zm9.515625 0l-2.609375 0l0 -22.90625l2.8125 0l0 8.171875q1.78125 -2.234375 4.546875 -2.234375q1.53125 0 2.890625 0.625q1.375 0.609375 2.25 1.734375q0.890625 1.109375 1.390625 2.6875q0.5 1.578125 0.5 3.375q0 4.265625 -2.109375 6.59375q-2.109375 2.328125 -5.0625 2.328125q-2.9375 0 -4.609375 -2.453125l0 2.078125zm-0.03125 -8.421875q0 2.984375 0.8125 4.3125q1.328125 2.171875 3.59375 2.171875q1.84375 0 3.1875 -1.59375q1.34375 -1.609375 1.34375 -4.78125q0 -3.25 -1.296875 -4.796875q-1.28125 -1.546875 -3.109375 -1.546875q-1.84375 0 -3.1875 1.609375q-1.34375 1.59375 -1.34375 4.625zm21.96875 8.421875l8.796875 -22.90625l3.265625 0l9.375 22.90625l-3.453125 0l-2.671875 -6.9375l-9.578125 0l-2.515625 6.9375l-3.21875 0zm6.609375 -9.40625l7.765625 0l-2.390625 -6.34375q-1.09375 -2.890625 -1.625 -4.75q-0.4375 2.203125 -1.234375 4.375l-2.515625 6.71875zm16.890625 15.765625l0 -22.953125l2.5625 0l0 2.15625q0.90625 -1.265625 2.046875 -1.890625q1.140625 -0.640625 2.765625 -0.640625q2.125 0 3.75 1.09375q1.625 1.09375 2.453125 3.09375q0.828125 1.984375 0.828125 4.359375q0 2.546875 -0.921875 4.59375q-0.90625 2.03125 -2.65625 3.125q-1.734375 1.078125 -3.65625 1.078125q-1.40625 0 -2.53125 -0.59375q-1.109375 -0.59375 -1.828125 -1.5l0 8.078125l-2.8125 0zm2.546875 -14.5625q0 3.203125 1.296875 4.734375q1.296875 1.53125 3.140625 1.53125q1.875 0 3.203125 -1.578125q1.34375 -1.59375 1.34375 -4.921875q0 -3.171875 -1.3125 -4.75q-1.296875 -1.578125 -3.109375 -1.578125q-1.796875 0 -3.1875 1.6875q-1.375 1.671875 -1.375 4.875zm15.25 14.5625l0 -22.953125l2.5625 0l0 2.15625q0.90625 -1.265625 2.046875 -1.890625q1.140625 -0.640625 2.765625 -0.640625q2.125 0 3.75 1.09375q1.625 1.09375 2.453125 3.09375q0.828125 1.984375 0.828125 4.359375q0 2.546875 -0.921875 4.59375q-0.90625 2.03125 -2.65625 3.125q-1.734375 1.078125 -3.65625 1.078125q-1.40625 0 -2.53125 -0.59375q-1.109375 -0.59375 -1.828125 -1.5l0 8.078125l-2.8125 0zm2.546875 -14.5625q0 3.203125 1.296875 4.734375q1.296875 1.53125 3.140625 1.53125q1.875 0 3.203125 -1.578125q1.34375 -1.59375 1.34375 -4.921875q0 -3.171875 -1.3125 -4.75q-1.296875 -1.578125 -3.109375 -1.578125q-1.796875 0 -3.1875 1.6875q-1.375 1.671875 -1.375 4.875z" fill-rule="nonzero"></path><path fill="#cfe2f3" d="m357.87402 42.855644l0 0c0 -10.2571335 8.315033 -18.57218 18.572174 -18.57218l195.35959 0c4.925659 0 9.649536 1.956707 13.132507 5.439665c3.4829712 3.4829597 5.439636 8.206867 5.439636 13.132515l0 74.28871c0 10.2571335 -8.315002 18.572182 -18.572144 18.572182l-195.35959 0l0 0c-10.257141 0 -18.572174 -8.315048 -18.572174 -18.572182z" fill-rule="evenodd"></path><path stroke="#000000" stroke-width="1.0" stroke-linejoin="round" stroke-linecap="butt" d="m357.87402 42.855644l0 0c0 -10.2571335 8.315033 -18.57218 18.572174 -18.57218l195.35959 0c4.925659 0 9.649536 1.956707 13.132507 5.439665c3.4829712 3.4829597 5.439636 8.206867 5.439636 13.132515l0 74.28871c0 10.2571335 -8.315002 18.572182 -18.572144 18.572182l-195.35959 0l0 0c-10.257141 0 -18.572174 -8.315048 -18.572174 -18.572182z" fill-rule="evenodd"></path><path fill="#000000" d="m387.91473 73.159996l0 -18.3125l-6.828125 0l0 -2.453125l16.453125 0l0 2.453125l-6.875 0l0 18.3125l-2.75 0zm22.11792 -1.859375q-1.40625 1.203125 -2.71875 1.703125q-1.3125 0.5 -2.8125 0.5q-2.484375 0 -3.8125 -1.203125q-1.328125 -1.21875 -1.328125 -3.109375q0 -1.09375 0.5 -2.0q0.5 -0.921875 1.3125 -1.46875q0.828125 -0.5625 1.84375 -0.84375q0.75 -0.203125 2.265625 -0.390625q3.078125 -0.359375 4.546875 -0.875q0.015625 -0.515625 0.015625 -0.65625q0 -1.5625 -0.734375 -2.203125q-0.96875 -0.859375 -2.890625 -0.859375q-1.796875 0 -2.65625 0.625q-0.859375 0.625 -1.265625 2.234375l-2.5 -0.34375q0.34375 -1.59375 1.125 -2.578125q0.78125 -0.984375 2.25 -1.515625q1.46875 -0.53125 3.40625 -0.53125q1.9375 0 3.140625 0.453125q1.203125 0.453125 1.765625 1.140625q0.5625 0.6875 0.796875 1.734375q0.125 0.640625 0.125 2.34375l0 3.40625q0 3.546875 0.15625 4.5q0.171875 0.9375 0.640625 1.796875l-2.65625 0q-0.390625 -0.796875 -0.515625 -1.859375zm-0.203125 -5.6875q-1.390625 0.5625 -4.171875 0.96875q-1.5625 0.21875 -2.21875 0.5q-0.65625 0.28125 -1.015625 0.828125q-0.34375 0.546875 -0.34375 1.21875q0 1.015625 0.765625 1.703125q0.78125 0.671875 2.265625 0.671875q1.46875 0 2.609375 -0.640625q1.15625 -0.65625 1.703125 -1.765625q0.40625 -0.859375 0.40625 -2.546875l0 -0.9375zm6.685913 7.546875l0 -15.03125l2.28125 0l0 2.265625q0.890625 -1.59375 1.625 -2.09375q0.75 -0.515625 1.640625 -0.515625q1.28125 0 2.609375 0.8125l-0.875 2.375q-0.9375 -0.5625 -1.859375 -0.5625q-0.84375 0 -1.515625 0.515625q-0.65625 0.5 -0.9375 1.390625q-0.421875 1.359375 -0.421875 2.96875l0 7.875l-2.546875 0zm9.3133545 1.25l2.484375 0.359375q0.15625 1.15625 0.859375 1.671875q0.953125 0.71875 2.59375 0.71875q1.765625 0 2.734375 -0.71875q0.96875 -0.703125 1.296875 -1.984375q0.203125 -0.765625 0.1875 -3.265625q-1.671875 1.96875 -4.15625 1.96875q-3.109375 0 -4.8125 -2.234375q-1.6875 -2.234375 -1.6875 -5.375q0 -2.140625 0.78125 -3.953125q0.78125 -1.828125 2.25 -2.8125q1.484375 -1.0 3.484375 -1.0q2.65625 0 4.390625 2.15625l0 -1.8125l2.34375 0l0 12.984375q0 3.515625 -0.71875 4.984375q-0.703125 1.46875 -2.265625 2.3125q-1.546875 0.859375 -3.8125 0.859375q-2.6875 0 -4.34375 -1.21875q-1.65625 -1.203125 -1.609375 -3.640625zm2.109375 -9.03125q0 2.953125 1.171875 4.3125q1.1875 1.359375 2.953125 1.359375q1.765625 0 2.953125 -1.34375q1.1875 -1.359375 1.1875 -4.25q0 -2.765625 -1.234375 -4.15625q-1.21875 -1.40625 -2.953125 -1.40625q-1.6875 0 -2.890625 1.390625q-1.1875 1.375 -1.1875 4.09375zm24.967163 2.9375l2.640625 0.328125q-0.625 2.3125 -2.3125 3.59375q-1.6875 1.265625 -4.296875 1.265625q-3.3125 0 -5.25 -2.03125q-1.921875 -2.03125 -1.921875 -5.703125q0 -3.796875 1.953125 -5.890625q1.953125 -2.09375 5.0625 -2.09375q3.03125 0 4.9375 2.0625q1.90625 2.046875 1.90625 5.765625q0 0.21875 -0.015625 0.671875l-11.203125 0q0.140625 2.484375 1.390625 3.8125q1.265625 1.3125 3.140625 1.3125q1.40625 0 2.390625 -0.734375q1.0 -0.75 1.578125 -2.359375zm-8.359375 -4.125l8.390625 0q-0.171875 -1.890625 -0.96875 -2.84375q-1.21875 -1.46875 -3.15625 -1.46875q-1.75 0 -2.953125 1.171875q-1.1875 1.171875 -1.3125 3.140625zm19.951538 6.6875l0.359375 2.25q-1.078125 0.234375 -1.921875 0.234375q-1.390625 0 -2.15625 -0.4375q-0.765625 -0.453125 -1.078125 -1.15625q-0.3125 -0.71875 -0.3125 -3.015625l0 -8.65625l-1.859375 0l0 -1.96875l1.859375 0l0 -3.734375l2.53125 -1.53125l0 5.265625l2.578125 0l0 1.96875l-2.578125 0l0 8.796875q0 1.09375 0.140625 1.40625q0.140625 0.3125 0.4375 0.5q0.3125 0.171875 0.875 0.171875q0.421875 0 1.125 -0.09375zm2.5701904 8.046875l0 -20.796875l2.328125 0l0 1.953125q0.828125 -1.15625 1.859375 -1.71875q1.03125 -0.578125 2.5 -0.578125q1.921875 0 3.390625 1.0q1.484375 0.984375 2.234375 2.796875q0.75 1.796875 0.75 3.953125q0 2.296875 -0.828125 4.15625q-0.828125 1.84375 -2.40625 2.828125q-1.578125 0.984375 -3.328125 0.984375q-1.265625 0 -2.28125 -0.53125q-1.015625 -0.546875 -1.671875 -1.375l0 7.328125l-2.546875 0zm2.3125 -13.203125q0 2.90625 1.171875 4.296875q1.1875 1.390625 2.84375 1.390625q1.703125 0 2.90625 -1.4375q1.21875 -1.4375 1.21875 -4.453125q0 -2.875 -1.1875 -4.296875q-1.171875 -1.4375 -2.8125 -1.4375q-1.640625 0 -2.890625 1.515625q-1.25 1.515625 -1.25 4.421875zm13.982788 7.4375l0 -15.03125l2.28125 0l0 2.265625q0.890625 -1.59375 1.625 -2.09375q0.75 -0.515625 1.640625 -0.515625q1.28125 0 2.609375 0.8125l-0.875 2.375q-0.9375 -0.5625 -1.859375 -0.5625q-0.84375 0 -1.515625 0.515625q-0.65625 0.5 -0.9375 1.390625q-0.421875 1.359375 -0.421875 2.96875l0 7.875l-2.546875 0zm8.844635 -7.515625q0 -4.1875 2.3125 -6.1875q1.9375 -1.671875 4.734375 -1.671875q3.09375 0 5.0625 2.03125q1.96875 2.03125 1.96875 5.609375q0 2.90625 -0.875 4.578125q-0.859375 1.65625 -2.53125 2.578125q-1.65625 0.921875 -3.625 0.921875q-3.15625 0 -5.109375 -2.015625q-1.9375 -2.03125 -1.9375 -5.84375zm2.609375 0q0 2.890625 1.265625 4.328125q1.265625 1.4375 3.171875 1.4375q1.890625 0 3.15625 -1.4375q1.265625 -1.453125 1.265625 -4.421875q0 -2.78125 -1.28125 -4.21875q-1.265625 -1.4375 -3.140625 -1.4375q-1.90625 0 -3.171875 1.4375q-1.265625 1.421875 -1.265625 4.3125zm24.451508 2.0l2.515625 0.328125q-0.40625 2.59375 -2.109375 4.0625q-1.6875 1.46875 -4.15625 1.46875q-3.078125 0 -4.9530945 -2.015625q-1.875 -2.03125 -1.875 -5.796875q0 -2.421875 0.796875 -4.25q0.8125 -1.828125 2.453125 -2.734375q1.6562195 -0.921875 3.5937195 -0.921875q2.453125 0 4.0 1.234375q1.5625 1.234375 2.0 3.515625l-2.46875 0.390625q-0.359375 -1.515625 -1.265625 -2.28125q-0.890625 -0.765625 -2.171875 -0.765625q-1.921875 0 -3.125 1.390625q-1.2030945 1.375 -1.2030945 4.359375q0 3.03125 1.1562195 4.40625q1.171875 1.375 3.03125 1.375q1.5 0 2.5 -0.921875q1.015625 -0.921875 1.28125 -2.84375zm15.1484375 0.671875l2.640625 0.328125q-0.625 2.3125 -2.3125 3.59375q-1.6875 1.265625 -4.296875 1.265625q-3.3125 0 -5.25 -2.03125q-1.921875 -2.03125 -1.921875 -5.703125q0 -3.796875 1.953125 -5.890625q1.953125 -2.09375 5.0625 -2.09375q3.03125 0 4.9375 2.0625q1.90625 2.046875 1.90625 5.765625q0 0.21875 -0.015625 0.671875l-11.203125 0q0.140625 2.484375 1.390625 3.8125q1.265625 1.3125 3.140625 1.3125q1.40625 0 2.390625 -0.734375q1.0 -0.75 1.578125 -2.359375zm-8.359375 -4.125l8.390625 0q-0.171875 -1.890625 -0.96875 -2.84375q-1.21875 -1.46875 -3.15625 -1.46875q-1.75 0 -2.953125 1.171875q-1.1875 1.171875 -1.3125 3.140625zm13.357788 4.484375l2.515625 -0.40625q0.21875 1.515625 1.1875 2.328125q0.96875 0.8125 2.71875 0.8125q1.75 0 2.59375 -0.71875q0.859375 -0.71875 0.859375 -1.6875q0 -0.859375 -0.75 -1.359375q-0.53125 -0.328125 -2.609375 -0.859375q-2.796875 -0.703125 -3.890625 -1.21875q-1.078125 -0.515625 -1.640625 -1.421875q-0.5625 -0.921875 -0.5625 -2.03125q0 -1.0 0.453125 -1.859375q0.46875 -0.859375 1.265625 -1.421875q0.59375 -0.4375 1.609375 -0.734375q1.03125 -0.3125 2.21875 -0.3125q1.765625 0 3.09375 0.515625q1.34375 0.5 1.984375 1.375q0.640625 0.875 0.875 2.328125l-2.484375 0.34375q-0.171875 -1.171875 -0.984375 -1.8125q-0.8125 -0.65625 -2.3125 -0.65625q-1.75 0 -2.5 0.578125q-0.75 0.578125 -0.75 1.359375q0 0.5 0.3125 0.890625q0.3125 0.40625 0.96875 0.6875q0.390625 0.140625 2.265625 0.640625q2.703125 0.734375 3.765625 1.1875q1.0625 0.453125 1.671875 1.34375q0.609375 0.875 0.609375 2.171875q0 1.28125 -0.75 2.40625q-0.734375 1.125 -2.140625 1.75q-1.390625 0.609375 -3.15625 0.609375q-2.9375 0 -4.484375 -1.21875q-1.53125 -1.21875 -1.953125 -3.609375zm14.6640625 0l2.515625 -0.40625q0.21875 1.515625 1.1875 2.328125q0.96875 0.8125 2.71875 0.8125q1.75 0 2.59375 -0.71875q0.859375 -0.71875 0.859375 -1.6875q0 -0.859375 -0.75 -1.359375q-0.53125 -0.328125 -2.609375 -0.859375q-2.796875 -0.703125 -3.890625 -1.21875q-1.078125 -0.515625 -1.640625 -1.421875q-0.5625 -0.921875 -0.5625 -2.03125q0 -1.0 0.453125 -1.859375q0.46875 -0.859375 1.265625 -1.421875q0.59375 -0.4375 1.609375 -0.734375q1.03125 -0.3125 2.21875 -0.3125q1.765625 0 3.09375 0.515625q1.34375 0.5 1.984375 1.375q0.640625 0.875 0.875 2.328125l-2.484375 0.34375q-0.171875 -1.171875 -0.984375 -1.8125q-0.8125 -0.65625 -2.3125 -0.65625q-1.75 0 -2.5 0.578125q-0.75 0.578125 -0.75 1.359375q0 0.5 0.3125 0.890625q0.3125 0.40625 0.96875 0.6875q0.390625 0.140625 2.265625 0.640625q2.703125 0.734375 3.765625 1.1875q1.0625 0.453125 1.671875 1.34375q0.609375 0.875 0.609375 2.171875q0 1.28125 -0.75 2.40625q-0.734375 1.125 -2.140625 1.75q-1.390625 0.609375 -3.15625 0.609375q-2.9375 0 -4.484375 -1.21875q-1.53125 -1.21875 -1.953125 -3.609375z" fill-rule="nonzero"></path><path fill="#000000" d="m447.98737 108.159996l7.984375 -20.765625l2.953125 0l8.5 20.765625l-3.140625 0l-2.421875 -6.28125l-8.671875 0l-2.28125 6.28125l-2.921875 0zm6.0 -8.53125l7.03125 0l-2.171875 -5.75q-0.984375 -2.609375 -1.46875 -4.296875q-0.390625 2.0 -1.109375 3.96875l-2.28125 6.078125zm15.5147705 14.296875l0 -20.796875l2.328125 0l0 1.953125q0.828125 -1.15625 1.859375 -1.71875q1.03125 -0.578125 2.5 -0.578125q1.921875 0 3.390625 1.0q1.484375 0.984375 2.234375 2.796875q0.75 1.796875 0.75 3.953125q0 2.296875 -0.828125 4.15625q-0.828125 1.84375 -2.40625 2.828125q-1.578125 0.984375 -3.328125 0.984375q-1.265625 0 -2.28125 -0.53125q-1.015625 -0.546875 -1.671875 -1.375l0 7.328125l-2.546875 0zm2.3125 -13.203125q0 2.90625 1.171875 4.296875q1.1875 1.390625 2.84375 1.390625q1.703125 0 2.90625 -1.4375q1.21875 -1.4375 1.21875 -4.453125q0 -2.875 -1.1875 -4.296875q-1.171875 -1.4375 -2.8125 -1.4375q-1.640625 0 -2.890625 1.515625q-1.25 1.515625 -1.25 4.421875zm13.998413 13.203125l0 -20.796875l2.328125 0l0 1.953125q0.828125 -1.15625 1.859375 -1.71875q1.03125 -0.578125 2.5 -0.578125q1.921875 0 3.390625 1.0q1.484375 0.984375 2.234375 2.796875q0.75 1.796875 0.75 3.953125q0 2.296875 -0.828125 4.15625q-0.828125 1.84375 -2.40625 2.828125q-1.578125 0.984375 -3.328125 0.984375q-1.265625 0 -2.28125 -0.53125q-1.015625 -0.546875 -1.671875 -1.375l0 7.328125l-2.546875 0zm2.3125 -13.203125q0 2.90625 1.171875 4.296875q1.1875 1.390625 2.84375 1.390625q1.703125 0 2.90625 -1.4375q1.21875 -1.4375 1.21875 -4.453125q0 -2.875 -1.1875 -4.296875q-1.171875 -1.4375 -2.8125 -1.4375q-1.640625 0 -2.890625 1.515625q-1.25 1.515625 -1.25 4.421875z" fill-rule="nonzero"></path><path fill="#cfe2f3" d="m651.74805 42.855644l0 0c0 -10.2571335 8.315002 -18.57218 18.572144 -18.57218l195.35962 0c4.925598 0 9.649536 1.956707 13.132507 5.439665c3.4829712 3.4829597 5.439636 8.206867 5.439636 13.132515l0 74.28871c0 10.2571335 -8.315002 18.572182 -18.572144 18.572182l-195.35962 0l0 0c-10.257141 0 -18.572144 -8.315048 -18.572144 -18.572182z" fill-rule="evenodd"></path><path stroke="#000000" stroke-width="1.0" stroke-linejoin="round" stroke-linecap="butt" d="m651.74805 42.855644l0 0c0 -10.2571335 8.315002 -18.57218 18.572144 -18.57218l195.35962 0c4.925598 0 9.649536 1.956707 13.132507 5.439665c3.4829712 3.4829597 5.439636 8.206867 5.439636 13.132515l0 74.28871c0 10.2571335 -8.315002 18.572182 -18.572144 18.572182l-195.35962 0l0 0c-10.257141 0 -18.572144 -8.315048 -18.572144 -18.572182z" fill-rule="evenodd"></path><path fill="#000000" d="m680.1875 91.72l0 -3.203125l3.203125 0l0 3.203125l-3.203125 0zm8.890625 0l0 -3.203125l3.203125 0l0 3.203125l-3.203125 0zm8.890625 0l0 -3.203125l3.203125 0l0 3.203125l-3.203125 0zm7.046875 -8.296875q0 -4.609375 2.5625 -6.828125q2.140625 -1.84375 5.21875 -1.84375q3.421875 0 5.59375 2.25q2.171875 2.234375 2.171875 6.1875q0 3.203125 -0.96875 5.046875q-0.953125 1.828125 -2.796875 2.84375q-1.828125 1.015625 -4.0 1.015625q-3.484375 0 -5.640625 -2.234375q-2.140625 -2.234375 -2.140625 -6.4375zm2.890625 0q0 3.1875 1.390625 4.78125q1.390625 1.578125 3.5 1.578125q2.09375 0 3.484375 -1.59375q1.390625 -1.59375 1.390625 -4.859375q0 -3.078125 -1.40625 -4.65625q-1.390625 -1.59375 -3.46875 -1.59375q-2.109375 0 -3.5 1.578125q-1.390625 1.578125 -1.390625 4.765625zm22.09375 5.78125l0.40625 2.484375q-1.1875 0.25 -2.125 0.25q-1.53125 0 -2.375 -0.484375q-0.84375 -0.484375 -1.1875 -1.265625q-0.34375 -0.796875 -0.34375 -3.328125l0 -9.546875l-2.0625 0l0 -2.1875l2.0625 0l0 -4.109375l2.796875 -1.6875l0 5.796875l2.828125 0l0 2.1875l-2.828125 0l0 9.703125q0 1.203125 0.140625 1.546875q0.15625 0.34375 0.484375 0.546875q0.34375 0.203125 0.96875 0.203125q0.46875 0 1.234375 -0.109375zm2.75 2.515625l0 -22.90625l2.8125 0l0 8.21875q1.96875 -2.28125 4.96875 -2.28125q1.84375 0 3.203125 0.734375q1.359375 0.71875 1.9375 2.0q0.59375 1.28125 0.59375 3.71875l0 10.515625l-2.8125 0l0 -10.515625q0 -2.109375 -0.921875 -3.0625q-0.90625 -0.96875 -2.578125 -0.96875q-1.25 0 -2.359375 0.65625q-1.09375 0.640625 -1.5625 1.75q-0.46875 1.109375 -0.46875 3.0625l0 9.078125l-2.8125 0zm29.15625 -5.34375l2.90625 0.359375q-0.6875 2.546875 -2.546875 3.953125q-1.859375 1.40625 -4.75 1.40625q-3.640625 0 -5.78125 -2.234375q-2.125 -2.25 -2.125 -6.296875q0 -4.1875 2.15625 -6.5q2.15625 -2.3125 5.59375 -2.3125q3.328125 0 5.4375 2.265625q2.109375 2.265625 2.109375 6.375q0 0.25 -0.015625 0.75l-12.375 0q0.15625 2.734375 1.546875 4.1875q1.390625 1.453125 3.46875 1.453125q1.546875 0 2.640625 -0.8125q1.09375 -0.8125 1.734375 -2.59375zm-9.234375 -4.546875l9.265625 0q-0.1875 -2.09375 -1.0625 -3.140625q-1.34375 -1.625 -3.484375 -1.625q-1.9375 0 -3.265625 1.296875q-1.3125 1.296875 -1.453125 3.46875zm15.640625 9.890625l0 -16.59375l2.53125 0l0 2.515625q0.96875 -1.765625 1.78125 -2.328125q0.828125 -0.5625 1.8125 -0.5625q1.421875 0 2.890625 0.90625l-0.96875 2.609375q-1.03125 -0.609375 -2.0625 -0.609375q-0.921875 0 -1.65625 0.5625q-0.734375 0.546875 -1.046875 1.53125q-0.46875 1.5 -0.46875 3.28125l0 8.6875l-2.8125 0zm17.421875 0l8.796875 -22.90625l3.265625 0l9.375 22.90625l-3.453125 0l-2.671875 -6.9375l-9.578125 0l-2.515625 6.9375l-3.21875 0zm6.609375 -9.40625l7.765625 0l-2.390625 -6.34375q-1.09375 -2.890625 -1.625 -4.75q-0.4375 2.203125 -1.234375 4.375l-2.515625 6.71875zm16.890625 15.765625l0 -22.953125l2.5625 0l0 2.15625q0.90625 -1.265625 2.046875 -1.890625q1.140625 -0.640625 2.765625 -0.640625q2.125 0 3.75 1.09375q1.625 1.09375 2.453125 3.09375q0.828125 1.984375 0.828125 4.359375q0 2.546875 -0.921875 4.59375q-0.90625 2.03125 -2.65625 3.125q-1.734375 1.078125 -3.65625 1.078125q-1.40625 0 -2.53125 -0.59375q-1.109375 -0.59375 -1.828125 -1.5l0 8.078125l-2.8125 0zm2.546875 -14.5625q0 3.203125 1.296875 4.734375q1.296875 1.53125 3.140625 1.53125q1.875 0 3.203125 -1.578125q1.34375 -1.59375 1.34375 -4.921875q0 -3.171875 -1.3125 -4.75q-1.296875 -1.578125 -3.109375 -1.578125q-1.796875 0 -3.1875 1.6875q-1.375 1.671875 -1.375 4.875zm15.25 14.5625l0 -22.953125l2.5625 0l0 2.15625q0.90625 -1.265625 2.046875 -1.890625q1.140625 -0.640625 2.765625 -0.640625q2.125 0 3.75 1.09375q1.625 1.09375 2.453125 3.09375q0.828125 1.984375 0.828125 4.359375q0 2.546875 -0.921875 4.59375q-0.90625 2.03125 -2.65625 3.125q-1.734375 1.078125 -3.65625 1.078125q-1.40625 0 -2.53125 -0.59375q-1.109375 -0.59375 -1.828125 -1.5l0 8.078125l-2.8125 0zm2.546875 -14.5625q0 3.203125 1.296875 4.734375q1.296875 1.53125 3.140625 1.53125q1.875 0 3.203125 -1.578125q1.34375 -1.59375 1.34375 -4.921875q0 -3.171875 -1.3125 -4.75q-1.296875 -1.578125 -3.109375 -1.578125q-1.796875 0 -3.1875 1.6875q-1.375 1.671875 -1.375 4.875zm14.125 3.25l2.78125 -0.4375q0.234375 1.671875 1.296875 2.5625q1.078125 0.890625 3.0 0.890625q1.9375 0 2.875 -0.78125q0.9375 -0.796875 0.9375 -1.859375q0 -0.953125 -0.828125 -1.5q-0.578125 -0.375 -2.875 -0.953125q-3.09375 -0.78125 -4.296875 -1.34375q-1.1875 -0.578125 -1.8125 -1.578125q-0.609375 -1.015625 -0.609375 -2.234375q0 -1.109375 0.5 -2.046875q0.515625 -0.953125 1.390625 -1.578125q0.65625 -0.484375 1.78125 -0.8125q1.140625 -0.34375 2.4375 -0.34375q1.953125 0 3.421875 0.5625q1.484375 0.5625 2.1875 1.53125q0.703125 0.953125 0.96875 2.5625l-2.75 0.375q-0.1875 -1.28125 -1.09375 -2.0q-0.890625 -0.71875 -2.53125 -0.71875q-1.9375 0 -2.765625 0.640625q-0.828125 0.640625 -0.828125 1.5q0 0.546875 0.34375 0.984375q0.34375 0.453125 1.078125 0.75q0.421875 0.15625 2.484375 0.71875q2.984375 0.796875 4.15625 1.3125q1.1875 0.5 1.859375 1.46875q0.671875 0.96875 0.671875 2.40625q0 1.40625 -0.828125 2.65625q-0.8125 1.234375 -2.359375 1.921875q-1.546875 0.671875 -3.5 0.671875q-3.234375 0 -4.9375 -1.34375q-1.6875 -1.34375 -2.15625 -3.984375z" fill-rule="nonzero"></path><path fill="#cfe2f3" d="m51.74803 570.85565l0 0c0 -10.257141 8.315048 -18.572205 18.572182 -18.572205l195.35956 0c4.925659 0 9.649567 1.9567261 13.132538 5.4396973c3.4829407 3.4829712 5.4396667 8.206848 5.4396667 13.132507l0 74.2887c0 10.257141 -8.315063 18.572205 -18.572205 18.572205l-195.35956 0l0 0c-10.2571335 0 -18.572182 -8.315063 -18.572182 -18.572205z" fill-rule="evenodd"></path><path stroke="#000000" stroke-width="1.0" stroke-linejoin="round" stroke-linecap="butt" d="m51.74803 570.85565l0 0c0 -10.257141 8.315048 -18.572205 18.572182 -18.572205l195.35956 0c4.925659 0 9.649567 1.9567261 13.132538 5.4396973c3.4829407 3.4829712 5.4396667 8.206848 5.4396667 13.132507l0 74.2887c0 10.257141 -8.315063 18.572205 -18.572205 18.572205l-195.35956 0l0 0c-10.2571335 0 -18.572182 -8.315063 -18.572182 -18.572205z" fill-rule="evenodd"></path><path fill="#000000" d="m118.03906 610.7356l0 -2.6875l9.703125 -0.015625l0 8.5q-2.234375 1.78125 -4.609375 2.6875q-2.375 0.890625 -4.875 0.890625q-3.375 0 -6.140625 -1.4375q-2.75 -1.453125 -4.15625 -4.1875q-1.40625 -2.734375 -1.40625 -6.109375q0 -3.34375 1.390625 -6.234375q1.40625 -2.90625 4.03125 -4.3125q2.625 -1.40625 6.046875 -1.40625q2.484375 0 4.484375 0.8125q2.015625 0.796875 3.15625 2.234375q1.140625 1.4375 1.734375 3.75l-2.734375 0.75q-0.515625 -1.75 -1.28125 -2.75q-0.765625 -1.0 -2.1875 -1.59375q-1.421875 -0.609375 -3.15625 -0.609375q-2.078125 0 -3.59375 0.640625q-1.515625 0.625 -2.453125 1.65625q-0.921875 1.03125 -1.4375 2.265625q-0.875 2.125 -0.875 4.609375q0 3.0625 1.046875 5.125q1.0625 2.0625 3.078125 3.0625q2.015625 1.0 4.28125 1.0q1.96875 0 3.84375 -0.75q1.875 -0.765625 2.84375 -1.625l0 -4.265625l-6.734375 0zm12.765625 0.6875q0 -4.609375 2.5625 -6.828125q2.140625 -1.84375 5.21875 -1.84375q3.421875 0 5.59375 2.25q2.171875 2.234375 2.171875 6.1875q0 3.203125 -0.96875 5.046875q-0.953125 1.828125 -2.796875 2.84375q-1.828125 1.015625 -4.0 1.015625q-3.484375 0 -5.640625 -2.234375q-2.140625 -2.234375 -2.140625 -6.4375zm2.890625 0q0 3.1875 1.390625 4.78125q1.390625 1.578125 3.5 1.578125q2.09375 0 3.484375 -1.59375q1.390625 -1.59375 1.390625 -4.859375q0 -3.078125 -1.40625 -4.65625q-1.390625 -1.59375 -3.46875 -1.59375q-2.109375 0 -3.5 1.578125q-1.390625 1.578125 -1.390625 4.765625zm14.90625 0q0 -4.609375 2.5625 -6.828125q2.140625 -1.84375 5.21875 -1.84375q3.421875 0 5.59375 2.25q2.171875 2.234375 2.171875 6.1875q0 3.203125 -0.96875 5.046875q-0.953125 1.828125 -2.796875 2.84375q-1.828125 1.015625 -4.0 1.015625q-3.484375 0 -5.640625 -2.234375q-2.140625 -2.234375 -2.140625 -6.4375zm2.890625 0q0 3.1875 1.390625 4.78125q1.390625 1.578125 3.5 1.578125q2.09375 0 3.484375 -1.59375q1.390625 -1.59375 1.390625 -4.859375q0 -3.078125 -1.40625 -4.65625q-1.390625 -1.59375 -3.46875 -1.59375q-2.109375 0 -3.5 1.578125q-1.390625 1.578125 -1.390625 4.765625zm26.71875 8.296875l0 -2.09375q-1.578125 2.46875 -4.640625 2.46875q-1.984375 0 -3.65625 -1.09375q-1.65625 -1.09375 -2.578125 -3.046875q-0.90625 -1.96875 -0.90625 -4.515625q0 -2.484375 0.828125 -4.5q0.828125 -2.03125 2.484375 -3.109375q1.65625 -1.078125 3.703125 -1.078125q1.5 0 2.671875 0.640625q1.171875 0.625 1.90625 1.640625l0 -8.21875l2.796875 0l0 22.90625l-2.609375 0zm-8.890625 -8.28125q0 3.1875 1.34375 4.765625q1.34375 1.578125 3.171875 1.578125q1.84375 0 3.125 -1.5q1.296875 -1.515625 1.296875 -4.609375q0 -3.40625 -1.3125 -5.0q-1.3125 -1.59375 -3.234375 -1.59375q-1.875 0 -3.140625 1.53125q-1.25 1.53125 -1.25 4.828125zm18.984375 8.28125l-5.078125 -16.59375l2.90625 0l2.640625 9.578125l0.984375 3.5625q0.0625 -0.265625 0.859375 -3.421875l2.640625 -9.71875l2.890625 0l2.484375 9.625l0.828125 3.171875l0.953125 -3.203125l2.84375 -9.59375l2.734375 0l-5.1875 16.59375l-2.921875 0l-2.640625 -9.9375l-0.640625 -2.828125l-3.359375 12.765625l-2.9375 0zm20.0625 -19.671875l0 -3.234375l2.8125 0l0 3.234375l-2.8125 0zm0 19.671875l0 -16.59375l2.8125 0l0 16.59375l-2.8125 0zm7.09375 0l0 -16.59375l2.53125 0l0 2.359375q1.828125 -2.734375 5.28125 -2.734375q1.5 0 2.75 0.546875q1.265625 0.53125 1.890625 1.40625q0.625 0.875 0.875 2.078125q0.15625 0.78125 0.15625 2.734375l0 10.203125l-2.8125 0l0 -10.09375q0 -1.71875 -0.328125 -2.5625q-0.328125 -0.859375 -1.171875 -1.359375q-0.828125 -0.515625 -1.953125 -0.515625q-1.796875 0 -3.109375 1.140625q-1.296875 1.140625 -1.296875 4.328125l0 9.0625l-2.8125 0z" fill-rule="nonzero"></path><path fill="#cfe2f3" d="m693.73096 450.85565l0 0c0 -10.257141 8.315063 -18.572174 18.572205 -18.572174l195.35956 0c4.925659 0 9.649536 1.9566956 13.132507 5.4396667c3.4829712 3.4829407 5.4396973 8.206848 5.4396973 13.132507l0 74.2887c0 10.257141 -8.315063 18.572205 -18.572205 18.572205l-195.35956 0l0 0c-10.257141 0 -18.572205 -8.315063 -18.572205 -18.572205z" fill-rule="evenodd"></path><path stroke="#000000" stroke-width="1.0" stroke-linejoin="round" stroke-linecap="butt" d="m693.73096 450.85565l0 0c0 -10.257141 8.315063 -18.572174 18.572205 -18.572174l195.35956 0c4.925659 0 9.649536 1.9566956 13.132507 5.4396667c3.4829712 3.4829407 5.4396973 8.206848 5.4396973 13.132507l0 74.2887c0 10.257141 -8.315063 18.572205 -18.572205 18.572205l-195.35956 0l0 0c-10.257141 0 -18.572205 -8.315063 -18.572205 -18.572205z" fill-rule="evenodd"></path><path fill="#000000" d="m725.2954 499.72l0 -22.90625l7.890625 0q2.671875 0 4.078125 0.328125q1.96875 0.453125 3.359375 1.640625q1.8125 1.53125 2.703125 3.921875q0.90625 2.375 0.90625 5.4375q0 2.609375 -0.609375 4.625q-0.609375 2.015625 -1.5625 3.34375q-0.953125 1.3125 -2.09375 2.078125q-1.125 0.75 -2.734375 1.140625q-1.59375 0.390625 -3.671875 0.390625l-8.265625 0zm3.03125 -2.703125l4.890625 0q2.265625 0 3.546875 -0.421875q1.296875 -0.421875 2.0625 -1.1875q1.078125 -1.078125 1.671875 -2.890625q0.609375 -1.828125 0.609375 -4.421875q0 -3.59375 -1.1875 -5.515625q-1.171875 -1.9375 -2.859375 -2.59375q-1.21875 -0.46875 -3.921875 -0.46875l-4.8125 0l0 17.5zm30.59375 2.703125l0 -2.4375q-1.9375 2.8125 -5.265625 2.8125q-1.46875 0 -2.75 -0.5625q-1.265625 -0.5625 -1.890625 -1.40625q-0.609375 -0.859375 -0.859375 -2.09375q-0.171875 -0.828125 -0.171875 -2.625l0 -10.28125l2.8125 0l0 9.203125q0 2.203125 0.171875 2.96875q0.265625 1.109375 1.125 1.75q0.859375 0.625 2.125 0.625q1.265625 0 2.375 -0.640625q1.109375 -0.65625 1.5625 -1.765625q0.46875 -1.125 0.46875 -3.25l0 -8.890625l2.8125 0l0 16.59375l-2.515625 0zm6.921875 0l0 -16.59375l2.515625 0l0 2.328125q0.78125 -1.21875 2.078125 -1.953125q1.296875 -0.75 2.953125 -0.75q1.84375 0 3.015625 0.765625q1.1875 0.765625 1.671875 2.140625q1.96875 -2.90625 5.125 -2.90625q2.46875 0 3.796875 1.375q1.328125 1.359375 1.328125 4.203125l0 11.390625l-2.796875 0l0 -10.453125q0 -1.6875 -0.28125 -2.421875q-0.265625 -0.75 -0.984375 -1.203125q-0.71875 -0.453125 -1.6875 -0.453125q-1.75 0 -2.90625 1.171875q-1.15625 1.15625 -1.15625 3.71875l0 9.640625l-2.8125 0l0 -10.78125q0 -1.875 -0.6875 -2.8125q-0.6875 -0.9375 -2.25 -0.9375q-1.1875 0 -2.203125 0.625q-1.0 0.625 -1.453125 1.828125q-0.453125 1.203125 -0.453125 3.46875l0 8.609375l-2.8125 0zm29.25 0l-2.609375 0l0 -22.90625l2.8125 0l0 8.171875q1.78125 -2.234375 4.546875 -2.234375q1.53125 0 2.890625 0.625q1.375 0.609375 2.25 1.734375q0.890625 1.109375 1.390625 2.6875q0.5 1.578125 0.5 3.375q0 4.265625 -2.109375 6.59375q-2.109375 2.328125 -5.0625 2.328125q-2.9375 0 -4.609375 -2.453125l0 2.078125zm-0.03125 -8.421875q0 2.984375 0.8125 4.3125q1.328125 2.171875 3.59375 2.171875q1.84375 0 3.1875 -1.59375q1.34375 -1.609375 1.34375 -4.78125q0 -3.25 -1.296875 -4.796875q-1.28125 -1.546875 -3.109375 -1.546875q-1.84375 0 -3.1875 1.609375q-1.34375 1.59375 -1.34375 4.625zm15.171875 8.421875l0 -22.90625l2.8125 0l0 22.90625l-2.8125 0zm18.53125 -5.34375l2.90625 0.359375q-0.6875 2.546875 -2.546875 3.953125q-1.859375 1.40625 -4.75 1.40625q-3.640625 0 -5.78125 -2.234375q-2.125 -2.25 -2.125 -6.296875q0 -4.1875 2.15625 -6.5q2.15625 -2.3125 5.59375 -2.3125q3.328125 0 5.4375 2.265625q2.109375 2.265625 2.109375 6.375q0 0.25 -0.015625 0.75l-12.375 0q0.15625 2.734375 1.546875 4.1875q1.390625 1.453125 3.46875 1.453125q1.546875 0 2.640625 -0.8125q1.09375 -0.8125 1.734375 -2.59375zm-9.234375 -4.546875l9.265625 0q-0.1875 -2.09375 -1.0625 -3.140625q-1.34375 -1.625 -3.484375 -1.625q-1.9375 0 -3.265625 1.296875q-1.3125 1.296875 -1.453125 3.46875zm26.4375 9.890625l0 -2.09375q-1.578125 2.46875 -4.640625 2.46875q-1.984375 0 -3.65625 -1.09375q-1.65625 -1.09375 -2.578125 -3.046875q-0.90625 -1.96875 -0.90625 -4.515625q0 -2.484375 0.828125 -4.5q0.828125 -2.03125 2.484375 -3.109375q1.65625 -1.078125 3.703125 -1.078125q1.5 0 2.671875 0.640625q1.171875 0.625 1.90625 1.640625l0 -8.21875l2.796875 0l0 22.90625l-2.609375 0zm-8.890625 -8.28125q0 3.1875 1.34375 4.765625q1.34375 1.578125 3.171875 1.578125q1.84375 0 3.125 -1.5q1.296875 -1.515625 1.296875 -4.609375q0 -3.40625 -1.3125 -5.0q-1.3125 -1.59375 -3.234375 -1.59375q-1.875 0 -3.140625 1.53125q-1.25 1.53125 -1.25 4.828125zm14.875 -0.015625q0 -4.609375 2.5625 -6.828125q2.140625 -1.84375 5.21875 -1.84375q3.421875 0 5.59375 2.25q2.171875 2.234375 2.171875 6.1875q0 3.203125 -0.96875 5.046875q-0.953125 1.828125 -2.796875 2.84375q-1.828125 1.015625 -4.0 1.015625q-3.484375 0 -5.640625 -2.234375q-2.140625 -2.234375 -2.140625 -6.4375zm2.890625 0q0 3.1875 1.390625 4.78125q1.390625 1.578125 3.5 1.578125q2.09375 0 3.484375 -1.59375q1.390625 -1.59375 1.390625 -4.859375q0 -3.078125 -1.40625 -4.65625q-1.390625 -1.59375 -3.46875 -1.59375q-2.109375 0 -3.5 1.578125q-1.390625 1.578125 -1.390625 4.765625zm15.921875 8.296875l0 -16.59375l2.53125 0l0 2.515625q0.96875 -1.765625 1.78125 -2.328125q0.828125 -0.5625 1.8125 -0.5625q1.421875 0 2.890625 0.90625l-0.96875 2.609375q-1.03125 -0.609375 -2.0625 -0.609375q-0.921875 0 -1.65625 0.5625q-0.734375 0.546875 -1.046875 1.53125q-0.46875 1.5 -0.46875 3.28125l0 8.6875l-2.8125 0zm22.046875 -5.34375l2.90625 0.359375q-0.6875 2.546875 -2.546875 3.953125q-1.859375 1.40625 -4.75 1.40625q-3.640625 0 -5.78125 -2.234375q-2.125 -2.25 -2.125 -6.296875q0 -4.1875 2.15625 -6.5q2.15625 -2.3125 5.59375 -2.3125q3.328125 0 5.4375 2.265625q2.109375 2.265625 2.109375 6.375q0 0.25 -0.015625 0.75l-12.375 0q0.15625 2.734375 1.546875 4.1875q1.390625 1.453125 3.46875 1.453125q1.546875 0 2.640625 -0.8125q1.09375 -0.8125 1.734375 -2.59375zm-9.234375 -4.546875l9.265625 0q-0.1875 -2.09375 -1.0625 -3.140625q-1.34375 -1.625 -3.484375 -1.625q-1.9375 0 -3.265625 1.296875q-1.3125 1.296875 -1.453125 3.46875z" fill-rule="nonzero"></path><path fill="#cfe2f3" d="m693.73096 618.85565l0 0c0 -10.257141 8.315063 -18.572205 18.572205 -18.572205l195.35956 0c4.925659 0 9.649536 1.9567261 13.132507 5.4396973c3.4829712 3.4829712 5.4396973 8.206848 5.4396973 13.132507l0 74.2887c0 10.257141 -8.315063 18.572205 -18.572205 18.572205l-195.35956 0l0 0c-10.257141 0 -18.572205 -8.315063 -18.572205 -18.572205z" fill-rule="evenodd"></path><path stroke="#000000" stroke-width="1.0" stroke-linejoin="round" stroke-linecap="butt" d="m693.73096 618.85565l0 0c0 -10.257141 8.315063 -18.572205 18.572205 -18.572205l195.35956 0c4.925659 0 9.649536 1.9567261 13.132507 5.4396973c3.4829712 3.4829712 5.4396973 8.206848 5.4396973 13.132507l0 74.2887c0 10.257141 -8.315063 18.572205 -18.572205 18.572205l-195.35956 0l0 0c-10.257141 0 -18.572205 -8.315063 -18.572205 -18.572205z" fill-rule="evenodd"></path><path fill="#000000" d="m768.93604 667.72l0 -22.90625l16.5625 0l0 2.703125l-13.53125 0l0 7.015625l12.671875 0l0 2.6875l-12.671875 0l0 7.796875l14.0625 0l0 2.703125l-17.09375 0zm31.796875 0l0 -2.4375q-1.9375 2.8125 -5.265625 2.8125q-1.46875 0 -2.75 -0.5625q-1.265625 -0.5625 -1.890625 -1.40625q-0.609375 -0.859375 -0.859375 -2.09375q-0.171875 -0.828125 -0.171875 -2.625l0 -10.28125l2.8125 0l0 9.203125q0 2.203125 0.171875 2.96875q0.265625 1.109375 1.125 1.75q0.859375 0.625 2.125 0.625q1.265625 0 2.375 -0.640625q1.109375 -0.65625 1.5625 -1.765625q0.46875 -1.125 0.46875 -3.25l0 -8.890625l2.8125 0l0 16.59375l-2.515625 0zm17.75 -6.078125l2.765625 0.359375q-0.453125 2.859375 -2.328125 4.484375q-1.859375 1.609375 -4.578125 1.609375q-3.40625 0 -5.484375 -2.21875q-2.0625 -2.234375 -2.0625 -6.390625q0 -2.6875 0.890625 -4.703125q0.890625 -2.015625 2.703125 -3.015625q1.828125 -1.015625 3.96875 -1.015625q2.703125 0 4.421875 1.375q1.71875 1.359375 2.203125 3.875l-2.734375 0.421875q-0.390625 -1.671875 -1.390625 -2.515625q-0.984375 -0.84375 -2.390625 -0.84375q-2.125 0 -3.453125 1.53125q-1.328125 1.515625 -1.328125 4.8125q0 3.34375 1.28125 4.859375q1.28125 1.515625 3.34375 1.515625q1.65625 0 2.765625 -1.015625q1.109375 -1.015625 1.40625 -3.125zm5.109375 6.078125l0 -22.90625l2.8125 0l0 22.90625l-2.8125 0zm7.1875 -19.671875l0 -3.234375l2.8125 0l0 3.234375l-2.8125 0zm0 19.671875l0 -16.59375l2.8125 0l0 16.59375l-2.8125 0zm17.859375 0l0 -2.09375q-1.578125 2.46875 -4.640625 2.46875q-1.984375 0 -3.65625 -1.09375q-1.65625 -1.09375 -2.578125 -3.046875q-0.90625 -1.96875 -0.90625 -4.515625q0 -2.484375 0.828125 -4.5q0.828125 -2.03125 2.484375 -3.109375q1.65625 -1.078125 3.703125 -1.078125q1.5 0 2.671875 0.640625q1.171875 0.625 1.90625 1.640625l0 -8.21875l2.796875 0l0 22.90625l-2.609375 0zm-8.890625 -8.28125q0 3.1875 1.34375 4.765625q1.34375 1.578125 3.171875 1.578125q1.84375 0 3.125 -1.5q1.296875 -1.515625 1.296875 -4.609375q0 -3.40625 -1.3125 -5.0q-1.3125 -1.59375 -3.234375 -1.59375q-1.875 0 -3.140625 1.53125q-1.25 1.53125 -1.25 4.828125z" fill-rule="nonzero"></path><path fill="#cfe2f3" d="m693.73096 186.85564l0 0c0 -10.257126 8.315063 -18.572174 18.572205 -18.572174l195.35956 0c4.925659 0 9.649536 1.9567108 13.132507 5.4396667c3.4829712 3.482956 5.4396973 8.206863 5.4396973 13.132507l0 74.28871c0 10.257141 -8.315063 18.572174 -18.572205 18.572174l-195.35956 0l0 0c-10.257141 0 -18.572205 -8.315033 -18.572205 -18.572174z" fill-rule="evenodd"></path><path stroke="#000000" stroke-width="1.0" stroke-linejoin="round" stroke-linecap="butt" d="m693.73096 186.85564l0 0c0 -10.257126 8.315063 -18.572174 18.572205 -18.572174l195.35956 0c4.925659 0 9.649536 1.9567108 13.132507 5.4396667c3.4829712 3.482956 5.4396973 8.206863 5.4396973 13.132507l0 74.28871c0 10.257141 -8.315063 18.572174 -18.572205 18.572174l-195.35956 0l0 0c-10.257141 0 -18.572205 -8.315033 -18.572205 -18.572174z" fill-rule="evenodd"></path><path fill="#000000" d="m754.56885 235.72l0 -22.90625l4.5625 0l5.421875 16.21875q0.75 2.265625 1.09375 3.390625q0.390625 -1.25 1.21875 -3.671875l5.484375 -15.9375l4.078125 0l0 22.90625l-2.921875 0l0 -19.171875l-6.65625 19.171875l-2.734375 0l-6.625 -19.5l0 19.5l-2.921875 0zm37.21875 -2.046875q-1.5625 1.328125 -3.015625 1.875q-1.4375 0.546875 -3.09375 0.546875q-2.734375 0 -4.203125 -1.328125q-1.46875 -1.34375 -1.46875 -3.421875q0 -1.21875 0.546875 -2.21875q0.5625 -1.015625 1.453125 -1.625q0.90625 -0.609375 2.03125 -0.921875q0.828125 -0.21875 2.5 -0.421875q3.40625 -0.40625 5.015625 -0.96875q0.015625 -0.578125 0.015625 -0.734375q0 -1.71875 -0.796875 -2.421875q-1.078125 -0.953125 -3.203125 -0.953125q-1.984375 0 -2.9375 0.703125q-0.9375 0.6875 -1.390625 2.453125l-2.75 -0.375q0.375 -1.765625 1.234375 -2.84375q0.859375 -1.09375 2.484375 -1.671875q1.625 -0.59375 3.765625 -0.59375q2.125 0 3.453125 0.5q1.328125 0.5 1.953125 1.265625q0.625 0.75 0.875 1.90625q0.140625 0.71875 0.140625 2.59375l0 3.75q0 3.921875 0.171875 4.96875q0.1875 1.03125 0.71875 1.984375l-2.9375 0q-0.4375 -0.875 -0.5625 -2.046875zm-0.234375 -6.28125q-1.53125 0.625 -4.59375 1.0625q-1.734375 0.25 -2.453125 0.5625q-0.71875 0.3125 -1.109375 0.921875q-0.390625 0.59375 -0.390625 1.328125q0 1.125 0.84375 1.875q0.859375 0.75 2.5 0.75q1.625 0 2.890625 -0.703125q1.265625 -0.71875 1.859375 -1.953125q0.453125 -0.953125 0.453125 -2.8125l0 -1.03125zm5.328125 8.328125l6.0625 -8.625l-5.609375 -7.96875l3.515625 0l2.546875 3.890625q0.71875 1.109375 1.15625 1.859375q0.6875 -1.03125 1.265625 -1.828125l2.796875 -3.921875l3.359375 0l-5.734375 7.8125l6.171875 8.78125l-3.453125 0l-3.40625 -5.15625l-0.90625 -1.390625l-4.359375 6.546875l-3.40625 0zm20.9375 0l-5.078125 -16.59375l2.90625 0l2.640625 9.578125l0.984375 3.5625q0.0625 -0.265625 0.859375 -3.421875l2.640625 -9.71875l2.890625 0l2.484375 9.625l0.828125 3.171875l0.953125 -3.203125l2.84375 -9.59375l2.734375 0l-5.1875 16.59375l-2.921875 0l-2.640625 -9.9375l-0.640625 -2.828125l-3.359375 12.765625l-2.9375 0zm31.40625 -5.34375l2.90625 0.359375q-0.6875 2.546875 -2.546875 3.953125q-1.859375 1.40625 -4.75 1.40625q-3.640625 0 -5.78125 -2.234375q-2.125 -2.25 -2.125 -6.296875q0 -4.1875 2.15625 -6.5q2.15625 -2.3125 5.59375 -2.3125q3.328125 0 5.4375 2.265625q2.109375 2.265625 2.109375 6.375q0 0.25 -0.015625 0.75l-12.375 0q0.15625 2.734375 1.546875 4.1875q1.390625 1.453125 3.46875 1.453125q1.546875 0 2.640625 -0.8125q1.09375 -0.8125 1.734375 -2.59375zm-9.234375 -4.546875l9.265625 0q-0.1875 -2.09375 -1.0625 -3.140625q-1.34375 -1.625 -3.484375 -1.625q-1.9375 0 -3.265625 1.296875q-1.3125 1.296875 -1.453125 3.46875zm15.609375 9.890625l0 -22.90625l2.8125 0l0 22.90625l-2.8125 0zm7.109375 0l0 -22.90625l2.8125 0l0 22.90625l-2.8125 0z" fill-rule="nonzero"></path><path fill="#cfe2f3" d="m693.73096 322.85565l0 0c0 -10.257141 8.315063 -18.572174 18.572205 -18.572174l195.35956 0c4.925659 0 9.649536 1.9566956 13.132507 5.4396667c3.4829712 3.4829407 5.4396973 8.206848 5.4396973 13.132507l0 74.2887c0 10.257141 -8.315063 18.572174 -18.572205 18.572174l-195.35956 0l0 0c-10.257141 0 -18.572205 -8.315033 -18.572205 -18.572174z" fill-rule="evenodd"></path><path stroke="#000000" stroke-width="1.0" stroke-linejoin="round" stroke-linecap="butt" d="m693.73096 322.85565l0 0c0 -10.257141 8.315063 -18.572174 18.572205 -18.572174l195.35956 0c4.925659 0 9.649536 1.9566956 13.132507 5.4396667c3.4829712 3.4829407 5.4396973 8.206848 5.4396973 13.132507l0 74.2887c0 10.257141 -8.315063 18.572174 -18.572205 18.572174l-195.35956 0l0 0c-10.257141 0 -18.572205 -8.315033 -18.572205 -18.572174z" fill-rule="evenodd"></path><path fill="#000000" d="m776.0454 362.73563l0 -2.6875l9.703125 -0.015625l0 8.5q-2.234375 1.78125 -4.609375 2.6875q-2.375 0.890625 -4.875 0.890625q-3.375 0 -6.140625 -1.4375q-2.75 -1.453125 -4.15625 -4.1875q-1.40625 -2.734375 -1.40625 -6.109375q0 -3.34375 1.390625 -6.234375q1.40625 -2.90625 4.03125 -4.3125q2.625 -1.40625 6.046875 -1.40625q2.484375 0 4.484375 0.8125q2.015625 0.796875 3.15625 2.234375q1.140625 1.4375 1.734375 3.75l-2.734375 0.75q-0.515625 -1.75 -1.28125 -2.75q-0.765625 -1.0 -2.1875 -1.59375q-1.421875 -0.609375 -3.15625 -0.609375q-2.078125 0 -3.59375 0.640625q-1.515625 0.625 -2.453125 1.65625q-0.921875 1.03125 -1.4375 2.265625q-0.875 2.125 -0.875 4.609375q0 3.0625 1.046875 5.125q1.0625 2.0625 3.078125 3.0625q2.015625 1.0 4.28125 1.0q1.96875 0 3.84375 -0.75q1.875 -0.765625 2.84375 -1.625l0 -4.265625l-6.734375 0zm12.765625 0.6875q0 -4.609375 2.5625 -6.828125q2.140625 -1.84375 5.21875 -1.84375q3.421875 0 5.59375 2.25q2.171875 2.234375 2.171875 6.1875q0 3.203125 -0.96875 5.046875q-0.953125 1.828125 -2.796875 2.84375q-1.828125 1.015625 -4.0 1.015625q-3.484375 0 -5.640625 -2.234375q-2.140625 -2.234375 -2.140625 -6.4375zm2.890625 0q0 3.1875 1.390625 4.78125q1.390625 1.578125 3.5 1.578125q2.09375 0 3.484375 -1.59375q1.390625 -1.59375 1.390625 -4.859375q0 -3.078125 -1.40625 -4.65625q-1.390625 -1.59375 -3.46875 -1.59375q-2.109375 0 -3.5 1.578125q-1.390625 1.578125 -1.390625 4.765625zm15.890625 8.296875l0 -22.90625l2.8125 0l0 22.90625l-2.8125 0zm18.53125 -5.34375l2.90625 0.359375q-0.6875 2.546875 -2.546875 3.953125q-1.859375 1.40625 -4.75 1.40625q-3.640625 0 -5.78125 -2.234375q-2.125 -2.25 -2.125 -6.296875q0 -4.1875 2.15625 -6.5q2.15625 -2.3125 5.59375 -2.3125q3.328125 0 5.4375 2.265625q2.109375 2.265625 2.109375 6.375q0 0.25 -0.015625 0.75l-12.375 0q0.15625 2.734375 1.546875 4.1875q1.390625 1.453125 3.46875 1.453125q1.546875 0 2.640625 -0.8125q1.09375 -0.8125 1.734375 -2.59375zm-9.234375 -4.546875l9.265625 0q-0.1875 -2.09375 -1.0625 -3.140625q-1.34375 -1.625 -3.484375 -1.625q-1.9375 0 -3.265625 1.296875q-1.3125 1.296875 -1.453125 3.46875zm15.671875 9.890625l0 -16.59375l2.515625 0l0 2.328125q0.78125 -1.21875 2.078125 -1.953125q1.296875 -0.75 2.953125 -0.75q1.84375 0 3.015625 0.765625q1.1875 0.765625 1.671875 2.140625q1.96875 -2.90625 5.125 -2.90625q2.46875 0 3.796875 1.375q1.328125 1.359375 1.328125 4.203125l0 11.390625l-2.796875 0l0 -10.453125q0 -1.6875 -0.28125 -2.421875q-0.265625 -0.75 -0.984375 -1.203125q-0.71875 -0.453125 -1.6875 -0.453125q-1.75 0 -2.90625 1.171875q-1.15625 1.15625 -1.15625 3.71875l0 9.640625l-2.8125 0l0 -10.78125q0 -1.875 -0.6875 -2.8125q-0.6875 -0.9375 -2.25 -0.9375q-1.1875 0 -2.203125 0.625q-1.0 0.625 -1.453125 1.828125q-0.453125 1.203125 -0.453125 3.46875l0 8.609375l-2.8125 0z" fill-rule="nonzero"></path><path fill="#000000" fill-opacity="0.0" d="m357.87402 256.0l-181.85828 0l0 -120.28346" fill-rule="evenodd"></path><path stroke="#000000" stroke-width="4.0" stroke-linejoin="round" stroke-linecap="butt" d="m344.16568 256.0l-168.14993 0l0 -106.57512" fill-rule="evenodd"></path><path fill="#000000" stroke="#000000" stroke-width="4.0" stroke-linecap="butt" d="m344.16568 256.0l-4.498352 4.4983215l12.35907 -4.4983215l-12.35907 -4.498337z" fill-rule="evenodd"></path><path fill="#000000" stroke="#000000" stroke-width="4.0" stroke-linecap="butt" d="m176.01575 149.42488l4.498337 4.498337l-4.498337 -12.35907l-4.498337 12.35907z" fill-rule="evenodd"></path><path fill="#000000" fill-opacity="0.0" d="m474.12598 200.28346l0 -32.283463l0.06298828 0l0 -32.283463" fill-rule="evenodd"></path><path stroke="#000000" stroke-width="4.0" stroke-linejoin="round" stroke-linecap="butt" d="m474.12598 186.5751l0 -18.575104l0.06298828 0l0 -18.575119" fill-rule="evenodd"></path><path fill="#000000" stroke="#000000" stroke-width="4.0" stroke-linecap="butt" d="m474.12598 186.57512l-4.4983215 -4.498337l4.4983215 12.35907l4.498352 -12.35907z" fill-rule="evenodd"></path><path fill="#000000" stroke="#000000" stroke-width="4.0" stroke-linecap="butt" d="m474.18896 149.42488l4.498352 4.498337l-4.498352 -12.35907l-4.4983215 12.35907z" fill-rule="evenodd"></path><path fill="#000000" fill-opacity="0.0" d="m588.2152 205.71391l65.35437 -74.99213" fill-rule="evenodd"></path><path stroke="#000000" stroke-width="4.0" stroke-linejoin="round" stroke-linecap="butt" d="m597.2216 195.37933l47.341553 -54.322968" fill-rule="evenodd"></path><path fill="#000000" stroke="#000000" stroke-width="4.0" stroke-linecap="butt" d="m597.2216 195.37933l-0.43585205 -6.3466644l-4.7286377 12.272797l11.511169 -6.361969z" fill-rule="evenodd"></path><path fill="#000000" stroke="#000000" stroke-width="4.0" stroke-linecap="butt" d="m644.5632 141.05637l0.43579102 6.346649l4.7286987 -12.272781l-11.511169 6.3619537z" fill-rule="evenodd"></path><path fill="#000000" fill-opacity="0.0" d="m474.12598 311.71652l0 72.566956" fill-rule="evenodd"></path><path stroke="#000000" stroke-width="4.0" stroke-linejoin="round" stroke-linecap="butt" d="m474.12598 325.4249l0 45.150238" fill-rule="evenodd"></path><path fill="#000000" stroke="#000000" stroke-width="4.0" stroke-linecap="butt" d="m474.12598 325.4249l4.498352 4.4983215l-4.498352 -12.35907l-4.4983215 12.35907z" fill-rule="evenodd"></path><path fill="#000000" stroke="#000000" stroke-width="4.0" stroke-linecap="butt" d="m474.12598 370.5751l-4.4983215 -4.4983215l4.4983215 12.35907l4.498352 -12.35907z" fill-rule="evenodd"></path><path fill="#000000" fill-opacity="0.0" d="m280.7139 552.8583l79.275604 -64.28348" fill-rule="evenodd"></path><path stroke="#000000" stroke-width="4.0" stroke-linejoin="round" stroke-linecap="butt" d="m291.36154 544.22424l57.980316 -47.01541" fill-rule="evenodd"></path><path fill="#000000" stroke="#000000" stroke-width="4.0" stroke-linecap="butt" d="m291.36154 544.22424l0.6607666 -6.3272095l-6.766388 11.278198l12.432831 -4.290222z" fill-rule="evenodd"></path><path fill="#000000" stroke="#000000" stroke-width="4.0" stroke-linecap="butt" d="m349.34186 497.20883l-0.6607666 6.327179l6.7664185 -11.278168l-12.432861 4.290222z" fill-rule="evenodd"></path><path fill="#000000" fill-opacity="0.0" d="m590.3779 440.0l51.676575 0l0 -216.0l51.66205 0" fill-rule="evenodd"></path><path stroke="#000000" stroke-width="4.0" stroke-linejoin="round" stroke-linecap="butt" d="m604.0863 440.0l37.96814 0l0 -216.0l37.953735 0" fill-rule="evenodd"></path><path fill="#000000" stroke="#000000" stroke-width="4.0" stroke-linecap="butt" d="m604.0863 440.0l4.498352 -4.4983215l-12.35907 4.4983215l12.35907 4.4983215z" fill-rule="evenodd"></path><path fill="#000000" stroke="#000000" stroke-width="4.0" stroke-linecap="butt" d="m680.0082 224.0l-4.498352 4.498337l12.35907 -4.498337l-12.35907 -4.498337z" fill-rule="evenodd"></path><path fill="#000000" fill-opacity="0.0" d="m590.3779 440.0l51.676575 0l0 -80.0l51.66205 0" fill-rule="evenodd"></path><path stroke="#000000" stroke-width="4.0" stroke-linejoin="round" stroke-linecap="butt" d="m604.0863 440.0l37.96814 0l0 -80.0l37.953735 0" fill-rule="evenodd"></path><path fill="#000000" stroke="#000000" stroke-width="4.0" stroke-linecap="butt" d="m604.0863 440.0l4.498352 -4.4983215l-12.35907 4.4983215l12.35907 4.4983215z" fill-rule="evenodd"></path><path fill="#000000" stroke="#000000" stroke-width="4.0" stroke-linecap="butt" d="m680.0082 360.0l-4.498352 4.4983215l12.35907 -4.4983215l-12.35907 -4.4983215z" fill-rule="evenodd"></path><path fill="#000000" fill-opacity="0.0" d="m590.3779 440.0l51.676575 0l0 48.0l51.66205 0" fill-rule="evenodd"></path><path stroke="#000000" stroke-width="4.0" stroke-linejoin="round" stroke-linecap="butt" d="m590.3779 440.0l51.676514 0l0 48.0l37.953735 0" fill-rule="evenodd"></path><path fill="#000000" stroke="#000000" stroke-width="4.0" stroke-linecap="butt" d="m680.0082 488.0l-4.498352 4.4983215l12.35907 -4.4983215l-12.35907 -4.4983215z" fill-rule="evenodd"></path><path fill="#000000" fill-opacity="0.0" d="m809.9829 543.71655l0 28.283447l0.06304932 0l0 28.283447" fill-rule="evenodd"></path><path stroke="#000000" stroke-width="4.0" stroke-linejoin="round" stroke-linecap="butt" d="m809.9829 557.42487l0 14.575134l0.06304932 0l0 14.575134" fill-rule="evenodd"></path><path fill="#000000" stroke="#000000" stroke-width="4.0" stroke-linecap="butt" d="m809.9829 557.42487l4.498352 4.498352l-4.498352 -12.35907l-4.498291 12.35907z" fill-rule="evenodd"></path><path fill="#000000" stroke="#000000" stroke-width="4.0" stroke-linecap="butt" d="m810.04596 586.57513l-4.498352 -4.498352l4.498352 12.35907l4.498291 -12.35907z" fill-rule="evenodd"></path></g></svg>

